<svg version="1.1" xmlns="http://www.w3.org/2000/svg" xmlns:xlink="http://www.w3.org/1999/xlink" width="800px" height="800px" viewBox="0,0,255.98958,255.98958"><g transform="translate(25.59896,25.59896) scale(0.8,0.8)"><g fill="hsl(330, 25%, 96%)" fill-rule="nonzero" stroke="hsl(330, 25%, 96%)" stroke-width="none" stroke-linecap="none" stroke-linejoin="none" stroke-miterlimit="10" stroke-dasharray="" stroke-dashoffset="0" font-family="none" font-weight="none" font-size="none" text-anchor="none" style="mix-blend-mode: normal"><g transform="translate(85.3253,85.3253) scale(1.87959,1.87959)"><g id="SVGRepo_bgCarrier" stroke-width="0" stroke-linecap="butt" stroke-linejoin="miter" font-family="Inter, apple-system, BlinkMacSystemFont, &quot;Helvetica Neue&quot;, &quot;Segoe UI&quot;, &quot;Fira Sans&quot;, Roboto, Oxygen, Ubuntu, &quot;Droid Sans&quot;, Arial, sans-serif" font-weight="400" font-size="16" text-anchor="start"></g><g id="SVGRepo_tracerCarrier" stroke-width="4.5402" stroke-linecap="round" stroke-linejoin="round" font-family="Inter, apple-system, BlinkMacSystemFont, &quot;Helvetica Neue&quot;, &quot;Segoe UI&quot;, &quot;Fira Sans&quot;, Roboto, Oxygen, Ubuntu, &quot;Droid Sans&quot;, Arial, sans-serif" font-weight="400" font-size="16" text-anchor="start"></g><g id="SVGRepo_iconCarrier" stroke-width="4.5402" stroke-linecap="butt" stroke-linejoin="miter"><g><path d="M41.267,18.557h-14.435v-14.423c0,-2.283 -1.842,-4.134 -4.125,-4.134c-2.283,0 -4.124,1.851 -4.124,4.135v14.432h-14.442c-2.283,0 -4.139,1.851 -4.138,4.135c-0.001,1.141 0.46,2.187 1.207,2.934c0.748,0.749 1.78,1.222 2.92,1.222h14.453v14.412c0,1.142 0.453,2.176 1.201,2.922c0.748,0.748 1.777,1.211 2.919,1.211c2.282,0 4.129,-1.851 4.129,-4.133v-14.413h14.435c2.283,0 4.134,-1.867 4.133,-4.15c-0.001,-2.282 -1.852,-4.15 -4.133,-4.15z"></path></g></g></g></g></g></svg>